<mxfile host="Electron" modified="2024-04-28T19:46:43.133Z" agent="Mozilla/5.0 (Macintosh; Intel Mac OS X 10_15_7) AppleWebKit/537.36 (KHTML, like Gecko) draw.io/24.2.5 Chrome/120.0.6099.109 Electron/28.1.0 Safari/537.36" etag="yXQ7q0Bu7C_ix5USltke" version="24.2.5" type="device">
  <diagram name="Page-1" id="vaO4c5z8NFQ1rtSjagiP">
    <mxGraphModel dx="1739" dy="1739" grid="1" gridSize="10" guides="1" tooltips="1" connect="1" arrows="1" fold="1" page="1" pageScale="1" pageWidth="827" pageHeight="1169" math="0" shadow="0">
      <root>
        <mxCell id="0" />
        <mxCell id="1" parent="0" />
        <mxCell id="C_6yJB5hMTLldk0vgaxQ-37" value="data_header" style="swimlane;fontStyle=0;childLayout=stackLayout;horizontal=1;startSize=26;fillColor=#fff2cc;horizontalStack=0;resizeParent=1;resizeParentMax=0;resizeLast=0;collapsible=1;marginBottom=0;whiteSpace=wrap;html=1;strokeColor=#d6b656;" parent="1" vertex="1">
          <mxGeometry x="-360" y="80" width="100" height="104" as="geometry" />
        </mxCell>
        <mxCell id="C_6yJB5hMTLldk0vgaxQ-40" value="size" style="text;strokeColor=none;fillColor=none;align=left;verticalAlign=top;spacingLeft=4;spacingRight=4;overflow=hidden;rotatable=0;points=[[0,0.5],[1,0.5]];portConstraint=eastwest;whiteSpace=wrap;html=1;" parent="C_6yJB5hMTLldk0vgaxQ-37" vertex="1">
          <mxGeometry y="26" width="100" height="26" as="geometry" />
        </mxCell>
        <mxCell id="C_6yJB5hMTLldk0vgaxQ-38" value="next" style="text;strokeColor=none;fillColor=none;align=left;verticalAlign=top;spacingLeft=4;spacingRight=4;overflow=hidden;rotatable=0;points=[[0,0.5],[1,0.5]];portConstraint=eastwest;whiteSpace=wrap;html=1;" parent="C_6yJB5hMTLldk0vgaxQ-37" vertex="1">
          <mxGeometry y="52" width="100" height="26" as="geometry" />
        </mxCell>
        <mxCell id="C_6yJB5hMTLldk0vgaxQ-39" value="prev" style="text;strokeColor=none;fillColor=none;align=left;verticalAlign=top;spacingLeft=4;spacingRight=4;overflow=hidden;rotatable=0;points=[[0,0.5],[1,0.5]];portConstraint=eastwest;whiteSpace=wrap;html=1;" parent="C_6yJB5hMTLldk0vgaxQ-37" vertex="1">
          <mxGeometry y="78" width="100" height="26" as="geometry" />
        </mxCell>
        <mxCell id="C_6yJB5hMTLldk0vgaxQ-48" value="zone_header" style="swimlane;fontStyle=0;childLayout=stackLayout;horizontal=1;startSize=26;fillColor=#dae8fc;horizontalStack=0;resizeParent=1;resizeParentMax=0;resizeLast=0;collapsible=1;marginBottom=0;whiteSpace=wrap;html=1;strokeColor=#6c8ebf;" parent="1" vertex="1">
          <mxGeometry x="-460" y="80" width="100" height="52" as="geometry" />
        </mxCell>
        <mxCell id="C_6yJB5hMTLldk0vgaxQ-49" value="next" style="text;strokeColor=none;fillColor=none;align=left;verticalAlign=top;spacingLeft=4;spacingRight=4;overflow=hidden;rotatable=0;points=[[0,0.5],[1,0.5]];portConstraint=eastwest;whiteSpace=wrap;html=1;" parent="C_6yJB5hMTLldk0vgaxQ-48" vertex="1">
          <mxGeometry y="26" width="100" height="26" as="geometry" />
        </mxCell>
        <mxCell id="C_6yJB5hMTLldk0vgaxQ-59" value="" style="rounded=0;whiteSpace=wrap;html=1;fillColor=#dae8fc;strokeColor=#6c8ebf;" parent="1" vertex="1">
          <mxGeometry x="-480" y="256" width="80" height="40" as="geometry" />
        </mxCell>
        <mxCell id="C_6yJB5hMTLldk0vgaxQ-61" value="zone_header" style="text;strokeColor=none;fillColor=none;align=left;verticalAlign=top;spacingLeft=4;spacingRight=4;overflow=hidden;rotatable=0;points=[[0,0.5],[1,0.5]];portConstraint=eastwest;whiteSpace=wrap;html=1;" parent="1" vertex="1">
          <mxGeometry x="-480" y="230" width="80" height="26" as="geometry" />
        </mxCell>
        <mxCell id="C_6yJB5hMTLldk0vgaxQ-63" value="next_zone" style="text;strokeColor=none;fillColor=none;align=left;verticalAlign=top;spacingLeft=4;spacingRight=4;overflow=hidden;rotatable=0;points=[[0,0.5],[1,0.5]];portConstraint=eastwest;whiteSpace=wrap;html=1;" parent="1" vertex="1">
          <mxGeometry x="-480" y="263" width="80" height="26" as="geometry" />
        </mxCell>
        <mxCell id="C_6yJB5hMTLldk0vgaxQ-64" value="" style="rounded=0;whiteSpace=wrap;html=1;fillColor=#fff2cc;strokeColor=#d6b656;" parent="1" vertex="1">
          <mxGeometry x="-400" y="256" width="200" height="40" as="geometry" />
        </mxCell>
        <mxCell id="C_6yJB5hMTLldk0vgaxQ-65" value="data_header" style="text;strokeColor=none;fillColor=none;align=left;verticalAlign=top;spacingLeft=4;spacingRight=4;overflow=hidden;rotatable=0;points=[[0,0.5],[1,0.5]];portConstraint=eastwest;whiteSpace=wrap;html=1;" parent="1" vertex="1">
          <mxGeometry x="-400" y="230" width="80" height="26" as="geometry" />
        </mxCell>
        <mxCell id="C_6yJB5hMTLldk0vgaxQ-66" value="size" style="text;strokeColor=none;fillColor=none;align=left;verticalAlign=top;spacingLeft=4;spacingRight=4;overflow=hidden;rotatable=0;points=[[0,0.5],[1,0.5]];portConstraint=eastwest;whiteSpace=wrap;html=1;" parent="1" vertex="1">
          <mxGeometry x="-400" y="263" width="40" height="26" as="geometry" />
        </mxCell>
        <mxCell id="C_6yJB5hMTLldk0vgaxQ-67" value="next_chunk" style="text;strokeColor=none;fillColor=none;align=left;verticalAlign=top;spacingLeft=4;spacingRight=4;overflow=hidden;rotatable=0;points=[[0,0.5],[1,0.5]];portConstraint=eastwest;whiteSpace=wrap;html=1;" parent="1" vertex="1">
          <mxGeometry x="-360" y="263" width="80" height="26" as="geometry" />
        </mxCell>
        <mxCell id="C_6yJB5hMTLldk0vgaxQ-68" value="prev_chunk" style="text;strokeColor=none;fillColor=none;align=left;verticalAlign=top;spacingLeft=4;spacingRight=4;overflow=hidden;rotatable=0;points=[[0,0.5],[1,0.5]];portConstraint=eastwest;whiteSpace=wrap;html=1;" parent="1" vertex="1">
          <mxGeometry x="-280" y="263" width="80" height="23" as="geometry" />
        </mxCell>
        <mxCell id="C_6yJB5hMTLldk0vgaxQ-69" value="" style="rounded=0;whiteSpace=wrap;html=1;fillColor=#d5e8d4;strokeColor=#82b366;" parent="1" vertex="1">
          <mxGeometry x="-200" y="256" width="200" height="40" as="geometry" />
        </mxCell>
        <mxCell id="C_6yJB5hMTLldk0vgaxQ-70" value="payload" style="text;strokeColor=none;fillColor=none;align=left;verticalAlign=top;spacingLeft=4;spacingRight=4;overflow=hidden;rotatable=0;points=[[0,0.5],[1,0.5]];portConstraint=eastwest;whiteSpace=wrap;html=1;" parent="1" vertex="1">
          <mxGeometry x="-200" y="230" width="60" height="26" as="geometry" />
        </mxCell>
        <mxCell id="C_6yJB5hMTLldk0vgaxQ-72" value="" style="rounded=0;whiteSpace=wrap;html=1;fillColor=#d5e8d4;strokeColor=#82b366;" parent="1" vertex="1">
          <mxGeometry x="-360" y="286" width="160" height="10" as="geometry" />
        </mxCell>
        <mxCell id="C_6yJB5hMTLldk0vgaxQ-73" value="" style="rounded=0;whiteSpace=wrap;html=1;fillColor=#d5e8d4;strokeColor=#82b366;" parent="1" vertex="1">
          <mxGeometry x="-360" y="256" width="160" height="10" as="geometry" />
        </mxCell>
        <mxCell id="C_6yJB5hMTLldk0vgaxQ-225" style="edgeStyle=orthogonalEdgeStyle;rounded=0;orthogonalLoop=1;jettySize=auto;html=1;entryX=0;entryY=0.5;entryDx=0;entryDy=0;" parent="1" source="C_6yJB5hMTLldk0vgaxQ-74" target="C_6yJB5hMTLldk0vgaxQ-89" edge="1">
          <mxGeometry relative="1" as="geometry" />
        </mxCell>
        <mxCell id="C_6yJB5hMTLldk0vgaxQ-74" value="" style="rounded=0;whiteSpace=wrap;html=1;fillColor=#dae8fc;strokeColor=#6c8ebf;" parent="1" vertex="1">
          <mxGeometry x="400" y="106" width="80" height="40" as="geometry" />
        </mxCell>
        <mxCell id="C_6yJB5hMTLldk0vgaxQ-75" value="memory_zone" style="text;strokeColor=none;fillColor=none;align=left;verticalAlign=top;spacingLeft=4;spacingRight=4;overflow=hidden;rotatable=0;points=[[0,0.5],[1,0.5]];portConstraint=eastwest;whiteSpace=wrap;html=1;" parent="1" vertex="1">
          <mxGeometry x="395" y="80" width="90" height="26" as="geometry" />
        </mxCell>
        <mxCell id="C_6yJB5hMTLldk0vgaxQ-76" value="next_zone" style="text;strokeColor=none;fillColor=none;align=left;verticalAlign=top;spacingLeft=4;spacingRight=4;overflow=hidden;rotatable=0;points=[[0,0.5],[1,0.5]];portConstraint=eastwest;whiteSpace=wrap;html=1;" parent="1" vertex="1">
          <mxGeometry x="400" y="113" width="80" height="26" as="geometry" />
        </mxCell>
        <mxCell id="C_6yJB5hMTLldk0vgaxQ-77" value="" style="rounded=0;whiteSpace=wrap;html=1;fillColor=#fff2cc;strokeColor=#d6b656;" parent="1" vertex="1">
          <mxGeometry x="480" y="106" width="200" height="40" as="geometry" />
        </mxCell>
        <mxCell id="C_6yJB5hMTLldk0vgaxQ-78" value="chunk_header" style="text;strokeColor=none;fillColor=none;align=left;verticalAlign=top;spacingLeft=4;spacingRight=4;overflow=hidden;rotatable=0;points=[[0,0.5],[1,0.5]];portConstraint=eastwest;whiteSpace=wrap;html=1;" parent="1" vertex="1">
          <mxGeometry x="480" y="80" width="90" height="26" as="geometry" />
        </mxCell>
        <mxCell id="C_6yJB5hMTLldk0vgaxQ-79" value="size" style="text;strokeColor=none;fillColor=none;align=left;verticalAlign=top;spacingLeft=4;spacingRight=4;overflow=hidden;rotatable=0;points=[[0,0.5],[1,0.5]];portConstraint=eastwest;whiteSpace=wrap;html=1;" parent="1" vertex="1">
          <mxGeometry x="480" y="113" width="40" height="26" as="geometry" />
        </mxCell>
        <mxCell id="C_6yJB5hMTLldk0vgaxQ-80" value="prev_chunk" style="text;strokeColor=none;fillColor=none;align=left;verticalAlign=top;spacingLeft=4;spacingRight=4;overflow=hidden;rotatable=0;points=[[0,0.5],[1,0.5]];portConstraint=eastwest;whiteSpace=wrap;html=1;" parent="1" vertex="1">
          <mxGeometry x="520" y="113" width="80" height="26" as="geometry" />
        </mxCell>
        <mxCell id="C_6yJB5hMTLldk0vgaxQ-81" value="next_chunk" style="text;strokeColor=none;fillColor=none;align=left;verticalAlign=top;spacingLeft=4;spacingRight=4;overflow=hidden;rotatable=0;points=[[0,0.5],[1,0.5]];portConstraint=eastwest;whiteSpace=wrap;html=1;" parent="1" vertex="1">
          <mxGeometry x="600" y="113" width="80" height="23" as="geometry" />
        </mxCell>
        <mxCell id="C_6yJB5hMTLldk0vgaxQ-82" value="" style="rounded=0;whiteSpace=wrap;html=1;fillColor=#d5e8d4;strokeColor=#82b366;" parent="1" vertex="1">
          <mxGeometry x="680" y="106" width="200" height="40" as="geometry" />
        </mxCell>
        <mxCell id="C_6yJB5hMTLldk0vgaxQ-83" value="payload" style="text;strokeColor=none;fillColor=none;align=left;verticalAlign=top;spacingLeft=4;spacingRight=4;overflow=hidden;rotatable=0;points=[[0,0.5],[1,0.5]];portConstraint=eastwest;whiteSpace=wrap;html=1;" parent="1" vertex="1">
          <mxGeometry x="680" y="80" width="60" height="26" as="geometry" />
        </mxCell>
        <mxCell id="C_6yJB5hMTLldk0vgaxQ-84" value="" style="rounded=0;whiteSpace=wrap;html=1;fillColor=#d5e8d4;strokeColor=#82b366;" parent="1" vertex="1">
          <mxGeometry x="520" y="136" width="160" height="10" as="geometry" />
        </mxCell>
        <mxCell id="C_6yJB5hMTLldk0vgaxQ-85" value="" style="rounded=0;whiteSpace=wrap;html=1;fillColor=#d5e8d4;strokeColor=#82b366;" parent="1" vertex="1">
          <mxGeometry x="520" y="106" width="160" height="10" as="geometry" />
        </mxCell>
        <mxCell id="C_6yJB5hMTLldk0vgaxQ-247" style="edgeStyle=orthogonalEdgeStyle;rounded=0;orthogonalLoop=1;jettySize=auto;html=1;entryX=0;entryY=0.5;entryDx=0;entryDy=0;" parent="1" source="C_6yJB5hMTLldk0vgaxQ-87" target="C_6yJB5hMTLldk0vgaxQ-228" edge="1">
          <mxGeometry relative="1" as="geometry" />
        </mxCell>
        <mxCell id="C_6yJB5hMTLldk0vgaxQ-87" value="" style="rounded=0;whiteSpace=wrap;html=1;fillColor=#dae8fc;strokeColor=#6c8ebf;" parent="1" vertex="1">
          <mxGeometry x="400" y="269" width="80" height="40" as="geometry" />
        </mxCell>
        <mxCell id="C_6yJB5hMTLldk0vgaxQ-88" value="memory_zone" style="text;strokeColor=none;fillColor=none;align=left;verticalAlign=top;spacingLeft=4;spacingRight=4;overflow=hidden;rotatable=0;points=[[0,0.5],[1,0.5]];portConstraint=eastwest;whiteSpace=wrap;html=1;" parent="1" vertex="1">
          <mxGeometry x="400" y="243" width="90" height="26" as="geometry" />
        </mxCell>
        <mxCell id="C_6yJB5hMTLldk0vgaxQ-89" value="next_zone" style="text;strokeColor=none;fillColor=none;align=left;verticalAlign=top;spacingLeft=4;spacingRight=4;overflow=hidden;rotatable=0;points=[[0,0.5],[1,0.5]];portConstraint=eastwest;whiteSpace=wrap;html=1;" parent="1" vertex="1">
          <mxGeometry x="400" y="276" width="80" height="26" as="geometry" />
        </mxCell>
        <mxCell id="C_6yJB5hMTLldk0vgaxQ-90" value="" style="rounded=0;whiteSpace=wrap;html=1;fillColor=#fff2cc;strokeColor=#d6b656;" parent="1" vertex="1">
          <mxGeometry x="480" y="269" width="200" height="40" as="geometry" />
        </mxCell>
        <mxCell id="C_6yJB5hMTLldk0vgaxQ-91" value="chunk_header" style="text;strokeColor=none;fillColor=none;align=left;verticalAlign=top;spacingLeft=4;spacingRight=4;overflow=hidden;rotatable=0;points=[[0,0.5],[1,0.5]];portConstraint=eastwest;whiteSpace=wrap;html=1;" parent="1" vertex="1">
          <mxGeometry x="480" y="243" width="90" height="26" as="geometry" />
        </mxCell>
        <mxCell id="C_6yJB5hMTLldk0vgaxQ-92" value="size" style="text;strokeColor=none;fillColor=none;align=left;verticalAlign=top;spacingLeft=4;spacingRight=4;overflow=hidden;rotatable=0;points=[[0,0.5],[1,0.5]];portConstraint=eastwest;whiteSpace=wrap;html=1;" parent="1" vertex="1">
          <mxGeometry x="480" y="276" width="40" height="26" as="geometry" />
        </mxCell>
        <mxCell id="C_6yJB5hMTLldk0vgaxQ-93" value="prev_chunk" style="text;strokeColor=none;fillColor=none;align=left;verticalAlign=top;spacingLeft=4;spacingRight=4;overflow=hidden;rotatable=0;points=[[0,0.5],[1,0.5]];portConstraint=eastwest;whiteSpace=wrap;html=1;" parent="1" vertex="1">
          <mxGeometry x="520" y="276" width="80" height="26" as="geometry" />
        </mxCell>
        <mxCell id="C_6yJB5hMTLldk0vgaxQ-94" value="next_chunk" style="text;strokeColor=none;fillColor=none;align=left;verticalAlign=top;spacingLeft=4;spacingRight=4;overflow=hidden;rotatable=0;points=[[0,0.5],[1,0.5]];portConstraint=eastwest;whiteSpace=wrap;html=1;" parent="1" vertex="1">
          <mxGeometry x="600" y="276" width="80" height="23" as="geometry" />
        </mxCell>
        <mxCell id="C_6yJB5hMTLldk0vgaxQ-95" value="" style="rounded=0;whiteSpace=wrap;html=1;fillColor=#d5e8d4;strokeColor=#82b366;" parent="1" vertex="1">
          <mxGeometry x="680" y="269" width="200" height="40" as="geometry" />
        </mxCell>
        <mxCell id="C_6yJB5hMTLldk0vgaxQ-96" value="payload" style="text;strokeColor=none;fillColor=none;align=left;verticalAlign=top;spacingLeft=4;spacingRight=4;overflow=hidden;rotatable=0;points=[[0,0.5],[1,0.5]];portConstraint=eastwest;whiteSpace=wrap;html=1;" parent="1" vertex="1">
          <mxGeometry x="680" y="243" width="60" height="26" as="geometry" />
        </mxCell>
        <mxCell id="C_6yJB5hMTLldk0vgaxQ-97" value="" style="rounded=0;whiteSpace=wrap;html=1;fillColor=#d5e8d4;strokeColor=#82b366;" parent="1" vertex="1">
          <mxGeometry x="520" y="299" width="160" height="10" as="geometry" />
        </mxCell>
        <mxCell id="C_6yJB5hMTLldk0vgaxQ-98" value="" style="rounded=0;whiteSpace=wrap;html=1;fillColor=#d5e8d4;strokeColor=#82b366;" parent="1" vertex="1">
          <mxGeometry x="520" y="269" width="160" height="10" as="geometry" />
        </mxCell>
        <mxCell id="C_6yJB5hMTLldk0vgaxQ-180" value="" style="rounded=0;whiteSpace=wrap;html=1;fillColor=#fff2cc;strokeColor=#d6b656;" parent="1" vertex="1">
          <mxGeometry x="880" y="106" width="200" height="40" as="geometry" />
        </mxCell>
        <mxCell id="C_6yJB5hMTLldk0vgaxQ-181" value="chunk_header" style="text;strokeColor=none;fillColor=none;align=left;verticalAlign=top;spacingLeft=4;spacingRight=4;overflow=hidden;rotatable=0;points=[[0,0.5],[1,0.5]];portConstraint=eastwest;whiteSpace=wrap;html=1;" parent="1" vertex="1">
          <mxGeometry x="880" y="80" width="80" height="26" as="geometry" />
        </mxCell>
        <mxCell id="C_6yJB5hMTLldk0vgaxQ-182" value="size" style="text;strokeColor=none;fillColor=none;align=left;verticalAlign=top;spacingLeft=4;spacingRight=4;overflow=hidden;rotatable=0;points=[[0,0.5],[1,0.5]];portConstraint=eastwest;whiteSpace=wrap;html=1;" parent="1" vertex="1">
          <mxGeometry x="880" y="113" width="40" height="26" as="geometry" />
        </mxCell>
        <mxCell id="C_6yJB5hMTLldk0vgaxQ-183" value="prev_chunk" style="text;strokeColor=none;fillColor=none;align=left;verticalAlign=top;spacingLeft=4;spacingRight=4;overflow=hidden;rotatable=0;points=[[0,0.5],[1,0.5]];portConstraint=eastwest;whiteSpace=wrap;html=1;" parent="1" vertex="1">
          <mxGeometry x="920" y="113" width="80" height="26" as="geometry" />
        </mxCell>
        <mxCell id="C_6yJB5hMTLldk0vgaxQ-184" value="next_chunk" style="text;strokeColor=none;fillColor=none;align=left;verticalAlign=top;spacingLeft=4;spacingRight=4;overflow=hidden;rotatable=0;points=[[0,0.5],[1,0.5]];portConstraint=eastwest;whiteSpace=wrap;html=1;" parent="1" vertex="1">
          <mxGeometry x="1000" y="113" width="80" height="23" as="geometry" />
        </mxCell>
        <mxCell id="C_6yJB5hMTLldk0vgaxQ-185" value="" style="rounded=0;whiteSpace=wrap;html=1;fillColor=#d5e8d4;strokeColor=#82b366;" parent="1" vertex="1">
          <mxGeometry x="1080" y="106" width="200" height="40" as="geometry" />
        </mxCell>
        <mxCell id="C_6yJB5hMTLldk0vgaxQ-186" value="payload" style="text;strokeColor=none;fillColor=none;align=left;verticalAlign=top;spacingLeft=4;spacingRight=4;overflow=hidden;rotatable=0;points=[[0,0.5],[1,0.5]];portConstraint=eastwest;whiteSpace=wrap;html=1;" parent="1" vertex="1">
          <mxGeometry x="1080" y="80" width="60" height="26" as="geometry" />
        </mxCell>
        <mxCell id="C_6yJB5hMTLldk0vgaxQ-187" value="" style="rounded=0;whiteSpace=wrap;html=1;fillColor=#d5e8d4;strokeColor=#82b366;" parent="1" vertex="1">
          <mxGeometry x="920" y="136" width="160" height="10" as="geometry" />
        </mxCell>
        <mxCell id="C_6yJB5hMTLldk0vgaxQ-188" value="" style="rounded=0;whiteSpace=wrap;html=1;fillColor=#d5e8d4;strokeColor=#82b366;" parent="1" vertex="1">
          <mxGeometry x="920" y="106" width="160" height="10" as="geometry" />
        </mxCell>
        <mxCell id="C_6yJB5hMTLldk0vgaxQ-189" value="" style="rounded=0;whiteSpace=wrap;html=1;fillColor=#fff2cc;strokeColor=#d6b656;" parent="1" vertex="1">
          <mxGeometry x="880" y="269" width="200" height="40" as="geometry" />
        </mxCell>
        <mxCell id="C_6yJB5hMTLldk0vgaxQ-190" value="chunk_header" style="text;strokeColor=none;fillColor=none;align=left;verticalAlign=top;spacingLeft=4;spacingRight=4;overflow=hidden;rotatable=0;points=[[0,0.5],[1,0.5]];portConstraint=eastwest;whiteSpace=wrap;html=1;" parent="1" vertex="1">
          <mxGeometry x="880" y="243" width="80" height="26" as="geometry" />
        </mxCell>
        <mxCell id="C_6yJB5hMTLldk0vgaxQ-191" value="size" style="text;strokeColor=none;fillColor=none;align=left;verticalAlign=top;spacingLeft=4;spacingRight=4;overflow=hidden;rotatable=0;points=[[0,0.5],[1,0.5]];portConstraint=eastwest;whiteSpace=wrap;html=1;" parent="1" vertex="1">
          <mxGeometry x="880" y="276" width="40" height="26" as="geometry" />
        </mxCell>
        <mxCell id="C_6yJB5hMTLldk0vgaxQ-192" value="prev_chunk" style="text;strokeColor=none;fillColor=none;align=left;verticalAlign=top;spacingLeft=4;spacingRight=4;overflow=hidden;rotatable=0;points=[[0,0.5],[1,0.5]];portConstraint=eastwest;whiteSpace=wrap;html=1;" parent="1" vertex="1">
          <mxGeometry x="920" y="276" width="80" height="26" as="geometry" />
        </mxCell>
        <mxCell id="C_6yJB5hMTLldk0vgaxQ-193" value="next_chunk" style="text;strokeColor=none;fillColor=none;align=left;verticalAlign=top;spacingLeft=4;spacingRight=4;overflow=hidden;rotatable=0;points=[[0,0.5],[1,0.5]];portConstraint=eastwest;whiteSpace=wrap;html=1;" parent="1" vertex="1">
          <mxGeometry x="1000" y="276" width="80" height="23" as="geometry" />
        </mxCell>
        <mxCell id="C_6yJB5hMTLldk0vgaxQ-194" value="" style="rounded=0;whiteSpace=wrap;html=1;fillColor=#d5e8d4;strokeColor=#82b366;" parent="1" vertex="1">
          <mxGeometry x="1080" y="269" width="200" height="40" as="geometry" />
        </mxCell>
        <mxCell id="C_6yJB5hMTLldk0vgaxQ-195" value="payload" style="text;strokeColor=none;fillColor=none;align=left;verticalAlign=top;spacingLeft=4;spacingRight=4;overflow=hidden;rotatable=0;points=[[0,0.5],[1,0.5]];portConstraint=eastwest;whiteSpace=wrap;html=1;" parent="1" vertex="1">
          <mxGeometry x="1080" y="243" width="60" height="26" as="geometry" />
        </mxCell>
        <mxCell id="C_6yJB5hMTLldk0vgaxQ-196" value="" style="rounded=0;whiteSpace=wrap;html=1;fillColor=#d5e8d4;strokeColor=#82b366;" parent="1" vertex="1">
          <mxGeometry x="920" y="299" width="160" height="10" as="geometry" />
        </mxCell>
        <mxCell id="C_6yJB5hMTLldk0vgaxQ-197" value="" style="rounded=0;whiteSpace=wrap;html=1;fillColor=#d5e8d4;strokeColor=#82b366;" parent="1" vertex="1">
          <mxGeometry x="920" y="269" width="160" height="10" as="geometry" />
        </mxCell>
        <mxCell id="C_6yJB5hMTLldk0vgaxQ-220" value="malloc_data" style="swimlane;fontStyle=0;childLayout=stackLayout;horizontal=1;startSize=26;fillColor=none;horizontalStack=0;resizeParent=1;resizeParentMax=0;resizeLast=0;collapsible=1;marginBottom=0;whiteSpace=wrap;html=1;" parent="1" vertex="1">
          <mxGeometry x="80" y="126" width="140" height="104" as="geometry" />
        </mxCell>
        <mxCell id="C_6yJB5hMTLldk0vgaxQ-221" value="tiny_zone" style="text;strokeColor=none;fillColor=none;align=left;verticalAlign=top;spacingLeft=4;spacingRight=4;overflow=hidden;rotatable=0;points=[[0,0.5],[1,0.5]];portConstraint=eastwest;whiteSpace=wrap;html=1;" parent="C_6yJB5hMTLldk0vgaxQ-220" vertex="1">
          <mxGeometry y="26" width="140" height="26" as="geometry" />
        </mxCell>
        <mxCell id="C_6yJB5hMTLldk0vgaxQ-222" value="small_zone" style="text;strokeColor=none;fillColor=none;align=left;verticalAlign=top;spacingLeft=4;spacingRight=4;overflow=hidden;rotatable=0;points=[[0,0.5],[1,0.5]];portConstraint=eastwest;whiteSpace=wrap;html=1;" parent="C_6yJB5hMTLldk0vgaxQ-220" vertex="1">
          <mxGeometry y="52" width="140" height="26" as="geometry" />
        </mxCell>
        <mxCell id="C_6yJB5hMTLldk0vgaxQ-223" value="zones[3]" style="text;strokeColor=none;fillColor=none;align=left;verticalAlign=top;spacingLeft=4;spacingRight=4;overflow=hidden;rotatable=0;points=[[0,0.5],[1,0.5]];portConstraint=eastwest;whiteSpace=wrap;html=1;" parent="C_6yJB5hMTLldk0vgaxQ-220" vertex="1">
          <mxGeometry y="78" width="140" height="26" as="geometry" />
        </mxCell>
        <mxCell id="C_6yJB5hMTLldk0vgaxQ-224" style="edgeStyle=orthogonalEdgeStyle;rounded=0;orthogonalLoop=1;jettySize=auto;html=1;entryX=0;entryY=0.5;entryDx=0;entryDy=0;" parent="1" source="C_6yJB5hMTLldk0vgaxQ-223" target="C_6yJB5hMTLldk0vgaxQ-76" edge="1">
          <mxGeometry relative="1" as="geometry" />
        </mxCell>
        <mxCell id="C_6yJB5hMTLldk0vgaxQ-226" value="" style="rounded=0;whiteSpace=wrap;html=1;fillColor=#dae8fc;strokeColor=#6c8ebf;" parent="1" vertex="1">
          <mxGeometry x="400" y="379" width="80" height="40" as="geometry" />
        </mxCell>
        <mxCell id="C_6yJB5hMTLldk0vgaxQ-227" value="memory_zone" style="text;strokeColor=none;fillColor=none;align=left;verticalAlign=top;spacingLeft=4;spacingRight=4;overflow=hidden;rotatable=0;points=[[0,0.5],[1,0.5]];portConstraint=eastwest;whiteSpace=wrap;html=1;" parent="1" vertex="1">
          <mxGeometry x="400" y="353" width="90" height="26" as="geometry" />
        </mxCell>
        <mxCell id="C_6yJB5hMTLldk0vgaxQ-228" value="next_zone" style="text;strokeColor=none;fillColor=none;align=left;verticalAlign=top;spacingLeft=4;spacingRight=4;overflow=hidden;rotatable=0;points=[[0,0.5],[1,0.5]];portConstraint=eastwest;whiteSpace=wrap;html=1;" parent="1" vertex="1">
          <mxGeometry x="400" y="386" width="80" height="26" as="geometry" />
        </mxCell>
        <mxCell id="C_6yJB5hMTLldk0vgaxQ-229" value="" style="rounded=0;whiteSpace=wrap;html=1;fillColor=#fff2cc;strokeColor=#d6b656;" parent="1" vertex="1">
          <mxGeometry x="480" y="379" width="200" height="40" as="geometry" />
        </mxCell>
        <mxCell id="C_6yJB5hMTLldk0vgaxQ-230" value="chunk_header" style="text;strokeColor=none;fillColor=none;align=left;verticalAlign=top;spacingLeft=4;spacingRight=4;overflow=hidden;rotatable=0;points=[[0,0.5],[1,0.5]];portConstraint=eastwest;whiteSpace=wrap;html=1;" parent="1" vertex="1">
          <mxGeometry x="480" y="353" width="90" height="26" as="geometry" />
        </mxCell>
        <mxCell id="C_6yJB5hMTLldk0vgaxQ-231" value="size" style="text;strokeColor=none;fillColor=none;align=left;verticalAlign=top;spacingLeft=4;spacingRight=4;overflow=hidden;rotatable=0;points=[[0,0.5],[1,0.5]];portConstraint=eastwest;whiteSpace=wrap;html=1;" parent="1" vertex="1">
          <mxGeometry x="480" y="386" width="40" height="26" as="geometry" />
        </mxCell>
        <mxCell id="C_6yJB5hMTLldk0vgaxQ-232" value="prev_chunk" style="text;strokeColor=none;fillColor=none;align=left;verticalAlign=top;spacingLeft=4;spacingRight=4;overflow=hidden;rotatable=0;points=[[0,0.5],[1,0.5]];portConstraint=eastwest;whiteSpace=wrap;html=1;" parent="1" vertex="1">
          <mxGeometry x="520" y="386" width="80" height="26" as="geometry" />
        </mxCell>
        <mxCell id="C_6yJB5hMTLldk0vgaxQ-233" value="next_chunk" style="text;strokeColor=none;fillColor=none;align=left;verticalAlign=top;spacingLeft=4;spacingRight=4;overflow=hidden;rotatable=0;points=[[0,0.5],[1,0.5]];portConstraint=eastwest;whiteSpace=wrap;html=1;" parent="1" vertex="1">
          <mxGeometry x="600" y="386" width="80" height="23" as="geometry" />
        </mxCell>
        <mxCell id="C_6yJB5hMTLldk0vgaxQ-234" value="" style="rounded=0;whiteSpace=wrap;html=1;fillColor=#d5e8d4;strokeColor=#82b366;" parent="1" vertex="1">
          <mxGeometry x="680" y="379" width="200" height="40" as="geometry" />
        </mxCell>
        <mxCell id="C_6yJB5hMTLldk0vgaxQ-235" value="payload" style="text;strokeColor=none;fillColor=none;align=left;verticalAlign=top;spacingLeft=4;spacingRight=4;overflow=hidden;rotatable=0;points=[[0,0.5],[1,0.5]];portConstraint=eastwest;whiteSpace=wrap;html=1;" parent="1" vertex="1">
          <mxGeometry x="680" y="353" width="60" height="26" as="geometry" />
        </mxCell>
        <mxCell id="C_6yJB5hMTLldk0vgaxQ-236" value="" style="rounded=0;whiteSpace=wrap;html=1;fillColor=#d5e8d4;strokeColor=#82b366;" parent="1" vertex="1">
          <mxGeometry x="520" y="409" width="160" height="10" as="geometry" />
        </mxCell>
        <mxCell id="C_6yJB5hMTLldk0vgaxQ-237" value="" style="rounded=0;whiteSpace=wrap;html=1;fillColor=#d5e8d4;strokeColor=#82b366;" parent="1" vertex="1">
          <mxGeometry x="520" y="379" width="160" height="10" as="geometry" />
        </mxCell>
        <mxCell id="C_6yJB5hMTLldk0vgaxQ-238" value="" style="rounded=0;whiteSpace=wrap;html=1;fillColor=#fff2cc;strokeColor=#d6b656;" parent="1" vertex="1">
          <mxGeometry x="880" y="379" width="200" height="40" as="geometry" />
        </mxCell>
        <mxCell id="C_6yJB5hMTLldk0vgaxQ-239" value="chunk_header" style="text;strokeColor=none;fillColor=none;align=left;verticalAlign=top;spacingLeft=4;spacingRight=4;overflow=hidden;rotatable=0;points=[[0,0.5],[1,0.5]];portConstraint=eastwest;whiteSpace=wrap;html=1;" parent="1" vertex="1">
          <mxGeometry x="880" y="353" width="80" height="26" as="geometry" />
        </mxCell>
        <mxCell id="C_6yJB5hMTLldk0vgaxQ-240" value="size" style="text;strokeColor=none;fillColor=none;align=left;verticalAlign=top;spacingLeft=4;spacingRight=4;overflow=hidden;rotatable=0;points=[[0,0.5],[1,0.5]];portConstraint=eastwest;whiteSpace=wrap;html=1;" parent="1" vertex="1">
          <mxGeometry x="880" y="386" width="40" height="26" as="geometry" />
        </mxCell>
        <mxCell id="C_6yJB5hMTLldk0vgaxQ-241" value="prev_chunk" style="text;strokeColor=none;fillColor=none;align=left;verticalAlign=top;spacingLeft=4;spacingRight=4;overflow=hidden;rotatable=0;points=[[0,0.5],[1,0.5]];portConstraint=eastwest;whiteSpace=wrap;html=1;" parent="1" vertex="1">
          <mxGeometry x="920" y="386" width="80" height="26" as="geometry" />
        </mxCell>
        <mxCell id="C_6yJB5hMTLldk0vgaxQ-242" value="next_chunk" style="text;strokeColor=none;fillColor=none;align=left;verticalAlign=top;spacingLeft=4;spacingRight=4;overflow=hidden;rotatable=0;points=[[0,0.5],[1,0.5]];portConstraint=eastwest;whiteSpace=wrap;html=1;" parent="1" vertex="1">
          <mxGeometry x="1000" y="386" width="80" height="23" as="geometry" />
        </mxCell>
        <mxCell id="C_6yJB5hMTLldk0vgaxQ-243" value="" style="rounded=0;whiteSpace=wrap;html=1;fillColor=#d5e8d4;strokeColor=#82b366;" parent="1" vertex="1">
          <mxGeometry x="1080" y="379" width="200" height="40" as="geometry" />
        </mxCell>
        <mxCell id="C_6yJB5hMTLldk0vgaxQ-244" value="payload" style="text;strokeColor=none;fillColor=none;align=left;verticalAlign=top;spacingLeft=4;spacingRight=4;overflow=hidden;rotatable=0;points=[[0,0.5],[1,0.5]];portConstraint=eastwest;whiteSpace=wrap;html=1;" parent="1" vertex="1">
          <mxGeometry x="1080" y="353" width="60" height="26" as="geometry" />
        </mxCell>
        <mxCell id="C_6yJB5hMTLldk0vgaxQ-245" value="" style="rounded=0;whiteSpace=wrap;html=1;fillColor=#d5e8d4;strokeColor=#82b366;" parent="1" vertex="1">
          <mxGeometry x="920" y="409" width="160" height="10" as="geometry" />
        </mxCell>
        <mxCell id="C_6yJB5hMTLldk0vgaxQ-246" value="" style="rounded=0;whiteSpace=wrap;html=1;fillColor=#d5e8d4;strokeColor=#82b366;" parent="1" vertex="1">
          <mxGeometry x="920" y="379" width="160" height="10" as="geometry" />
        </mxCell>
        <mxCell id="C_6yJB5hMTLldk0vgaxQ-248" value="&lt;font style=&quot;font-size: 24px;&quot;&gt;tiny_zone&lt;/font&gt;" style="text;html=1;align=center;verticalAlign=middle;resizable=0;points=[];autosize=1;strokeColor=#666666;fillColor=#f5f5f5;fontColor=#333333;" parent="1" vertex="1">
          <mxGeometry x="355" y="-20" width="130" height="40" as="geometry" />
        </mxCell>
        <mxCell id="C_6yJB5hMTLldk0vgaxQ-250" value="chunk_size = page_size / 128" style="text;html=1;align=center;verticalAlign=middle;resizable=0;points=[];autosize=1;strokeColor=none;fillColor=none;" parent="1" vertex="1">
          <mxGeometry x="80" y="317" width="180" height="30" as="geometry" />
        </mxCell>
        <mxCell id="C_6yJB5hMTLldk0vgaxQ-251" value="payload size = chunk_size - sizeof(size_t)" style="text;html=1;align=center;verticalAlign=middle;resizable=0;points=[];autosize=1;strokeColor=none;fillColor=none;" parent="1" vertex="1">
          <mxGeometry x="80" y="359" width="250" height="30" as="geometry" />
        </mxCell>
        <mxCell id="C_6yJB5hMTLldk0vgaxQ-252" value="page_size = 16384&amp;nbsp;" style="text;html=1;align=center;verticalAlign=middle;resizable=0;points=[];autosize=1;strokeColor=none;fillColor=none;" parent="1" vertex="1">
          <mxGeometry x="80" y="279" width="130" height="30" as="geometry" />
        </mxCell>
        <mxCell id="5aLN-dTeSfC9B5cU5fiM-3" value="&lt;span style=&quot;background-color: rgb(181, 115, 157);&quot;&gt;next_zone (8)&lt;/span&gt;&lt;div&gt;&lt;br&gt;&lt;div&gt;&lt;span style=&quot;background-color: rgb(126, 166, 224);&quot;&gt;size (8)&lt;/span&gt;&lt;/div&gt;&lt;div&gt;&lt;span style=&quot;background-color: rgb(103, 171, 159);&quot;&gt;prev_chunk (8)&lt;/span&gt;&lt;/div&gt;&lt;div&gt;&lt;span style=&quot;background-color: rgb(255, 217, 102);&quot;&gt;next_chunk (8)&lt;/span&gt;&lt;/div&gt;&lt;div&gt;&lt;span style=&quot;background-color: rgb(248, 206, 204);&quot;&gt;payload ()&lt;br&gt;&lt;/span&gt;&lt;div&gt;&lt;br&gt;&lt;/div&gt;&lt;/div&gt;&lt;/div&gt;" style="text;html=1;align=center;verticalAlign=middle;resizable=0;points=[];autosize=1;strokeColor=none;fillColor=none;" vertex="1" parent="1">
          <mxGeometry x="1470" y="256" width="100" height="110" as="geometry" />
        </mxCell>
        <mxCell id="5aLN-dTeSfC9B5cU5fiM-7" value="sizes.tiny_zone: 128&lt;br&gt;tiny zone size: 16384&lt;br&gt;tiny zone chunk size: 128&lt;br&gt;tiny zone payload size: 120&lt;br&gt;0x000000: &lt;span style=&quot;background-color: rgb(181, 115, 157);&quot;&gt;00 00 00 00  00 00 00 00&lt;/span&gt;    &lt;span style=&quot;background-color: rgb(126, 166, 224);&quot;&gt;80 00 00 00  00 00 00 00&lt;/span&gt; ................&lt;br&gt;0x000010: &lt;span style=&quot;background-color: rgb(103, 171, 159);&quot;&gt;00 00 00 00  00 00 00 00&lt;/span&gt;    &lt;span style=&quot;background-color: rgb(255, 217, 102);&quot;&gt;88 80 8a 02  01 00 00 00&lt;/span&gt; ................&lt;br&gt;0x000020: &lt;span style=&quot;background-color: rgb(248, 206, 204);&quot;&gt;00 00 00 00  00 00 00 00    00 00 00 00  00 00 00 00&lt;/span&gt; ................&lt;br&gt;0x000030: 00 00 00 00  00 00 00 00    00 00 00 00  00 00 00 00 ................&lt;br&gt;0x000040: 00 00 00 00  00 00 00 00    00 00 00 00  00 00 00 00 ................&lt;br&gt;0x000050: 00 00 00 00  00 00 00 00    00 00 00 00  00 00 00 00 ................&lt;br&gt;0x000060: 00 00 00 00  00 00 00 00    00 00 00 00  00 00 00 00 ................&lt;br&gt;0x000070: &lt;span style=&quot;background-color: rgb(248, 206, 204);&quot;&gt;00 00 00 00  00 00 00 00    00 00 00 00  00 00 00 00&lt;/span&gt; ................&lt;br&gt;0x000080: &lt;span style=&quot;background-color: rgb(248, 206, 204);&quot;&gt;00 00 00 00  00 00 00 00&lt;/span&gt;    &lt;span style=&quot;background-color: rgb(126, 166, 224);&quot;&gt;80 00 00 00  00 00 00 00&lt;/span&gt; ................&lt;br&gt;0x000090: &lt;span style=&quot;background-color: rgb(103, 171, 159);&quot;&gt;08 80 8a 02  01 00 00 00&lt;/span&gt;    &lt;span style=&quot;background-color: rgb(255, 217, 102);&quot;&gt;08 81 8a 02  01 00 00 00&lt;/span&gt; ................&lt;br&gt;0x0000a0: &lt;span style=&quot;background-color: rgb(248, 206, 204);&quot;&gt;00 00 00 00  00 00 00 00    00 00 00 00  00 00 00 00&lt;/span&gt; ................&lt;br&gt;0x0000b0: 00 00 00 00  00 00 00 00    00 00 00 00  00 00 00 00 ................&lt;br&gt;0x0000c0: 00 00 00 00  00 00 00 00    00 00 00 00  00 00 00 00 ................&lt;br&gt;0x0000d0: 00 00 00 00  00 00 00 00    00 00 00 00  00 00 00 00 ................&lt;br&gt;0x0000e0: 00 00 00 00  00 00 00 00    00 00 00 00  00 00 00 00 ................&lt;br&gt;0x0000f0: 00 00 00 00  00 00 00 00    00 00 00 00  00 00 00 00 ................&lt;br&gt;0x000100: 00 00 00 00  00 00 00 00    80 00 00 00  00 00 00 00 ................&lt;br&gt;0x000110: 88 80 8a 02  01 00 00 00    88 81 8a 02  01 00 00 00 ................&lt;br&gt;0x000120: 00 00 00 00  00 00 00 00    00 00 00 00  00 00 00 00 ................&lt;br&gt;0x000130: 00 00 00 00  00 00 00 00    00 00 00 00  00 00 00 00 ................&lt;br&gt;0x000140: 00 00 00 00  00 00 00 00    00 00 00 00  00 00 00 00 ................&lt;br&gt;0x000150: 00 00 00 00  00 00 00 00    00 00 00 00  00 00 00 00 ................&lt;br&gt;0x000160: 00 00 00 00  00 00 00 00    00 00 00 00  00 00 00 00 ................&lt;br&gt;0x000170: 00 00 00 00  00 00 00 00    00 00 00 00  00 00 00 00 ................&lt;br&gt;0x000180: 00 00 00 00  00 00 00 00    80 00 00 00  00 00 00 00 ................&lt;br&gt;0x000190: 08 81 8a 02  01 00 00 00    08 82 8a 02  01 00 00 00 ................&lt;br&gt;0x0001a0: 00 00 00 00  00 00 00 00    00 00 00 00  00 00 00 00 ................&lt;br&gt;0x0001b0: 00 00 00 00  00 00 00 00    00 00 00 00  00 00 00 00 ................&lt;br&gt;0x0001c0: 00 00 00 00  00 00 00 00    00 00 00 00  00 00 00 00 ................&lt;br&gt;0x0001d0: 00 00 00 00  00 00 00 00    00 00 00 00  00 00 00 00 ................&lt;br&gt;0x0001e0: 00 00 00 00  00 00 00 00    00 00 00 00  00 00 00 00 ................&lt;br&gt;0x0001f0: 00 00 00 00  00 00 00 00    00 00 00 00  00 00 00 00 ................&lt;br&gt;0x000200: 00 00 00 00  00 00 00 00    80 00 00 00  00 00 00 00 ................&lt;br&gt;0x000210: 88 81 8a 02  01 00 00 00    88 82 8a 02  01 00 00 00 ................&lt;br&gt;0x000220: 00 00 00 00  00 00 00 00    00 00 00 00  00 00 00 00 ................&lt;br&gt;0x000230: 00 00 00 00  00 00 00 00    00 00 00 00  00 00 00 00 ................&lt;br&gt;0x000240: 00 00 00 00  00 00 00 00    00 00 00 00  00 00 00 00 ................&lt;br&gt;0x000250: 00 00 00 00  00 00 00 00    00 00 00 00  00 00 00 00 ................&lt;br&gt;0x000260: 00 00 00 00  00 00 00 00    00 00 00 00  00 00 00 00 ................&lt;br&gt;0x000270: 00 00 00 00  00 00 00 00    00 00 00 00  00 00 00 00 ................&lt;br&gt;0x000280: 00 00 00 00  00 00 00 00    80 00 00 00  00 00 00 00 ................&lt;br&gt;0x000290: 08 82 8a 02  01 00 00 00    08 83 8a 02  01 00 00 00 ................&lt;br&gt;0x0002a0: 00 00 00 00  00 00 00 00    00 00 00 00  00 00 00 00 ................&lt;br&gt;0x0002b0: 00 00 00 00  00 00 00 00    00 00 00 00  00 00 00 00 ................&lt;br&gt;0x0002c0: 00 00 00 00  00 00 00 00    00 00 00 00  00 00 00 00 ................&lt;br&gt;0x0002d0: 00 00 00 00  00 00 00 00    00 00 00 00  00 00 00 00 ................&lt;br&gt;0x0002e0: 00 00 00 00  00 00 00 00    00 00 00 00  00 00 00 00 ................&lt;br&gt;0x0002f0: 00 00 00 00  00 00 00 00    00 00 00 00  00 00 00 00 ................&lt;br&gt;0x000300: 00 00 00 00  00 00 00 00    80 00 00 00  00 00 00 00 ................&lt;br&gt;0x000310: 88 82 8a 02  01 00 00 00    88 83 8a 02  01 00 00 00 ................&lt;br&gt;0x000320: 00 00 00 00  00 00 00 00    00 00 00 00  00 00 00 00 ................&lt;br&gt;0x000330: 00 00 00 00  00 00 00 00    00 00 00 00  00 00 00 00 ................&lt;br&gt;0x000340: 00 00 00 00  00 00 00 00    00 00 00 00  00 00 00 00 ................&lt;br&gt;0x000350: 00 00 00 00  00 00 00 00    00 00 00 00  00 00 00 00 ................&lt;br&gt;0x000360: 00 00 00 00  00 00 00 00    00 00 00 00  00 00 00 00 ................&lt;br&gt;0x000370: 00 00 00 00  00 00 00 00    00 00 00 00  00 00 00 00 ................&lt;br&gt;0x000380: 00 00 00 00  00 00 00 00    80 00 00 00  00 00 00 00 ................&lt;br&gt;0x000390: 08 83 8a 02  01 00 00 00    08 84 8a 02  01 00 00 00 ................&lt;br&gt;0x0003a0: 00 00 00 00  00 00 00 00    00 00 00 00  00 00 00 00 ................&lt;br&gt;0x0003b0: 00 00 00 00  00 00 00 00    00 00 00 00  00 00 00 00 ................&lt;br&gt;0x0003c0: 00 00 00 00  00 00 00 00    00 00 00 00  00 00 00 00 ................&lt;br&gt;0x0003d0: 00 00 00 00  00 00 00 00    00 00 00 00  00 00 00 00 ................&lt;br&gt;0x0003e0: 00 00 00 00  00 00 00 00    00 00 00 00  00 00 00 00 ................&lt;br&gt;0x0003f0: 00 00 00 00  00 00 00 00    00 00 00 00  00 00 00 00 ................&lt;br&gt;0x000400: 00 00 00 00  00 00 00 00    80 00 00 00  00 00 00 00 ................&lt;br&gt;0x000410: 88 83 8a 02  01 00 00 00    88 84 8a 02  01 00 00 00 ................&lt;br&gt;0x000420: 00 00 00 00  00 00 00 00    00 00 00 00  00 00 00 00 ................&lt;br&gt;0x000430: 00 00 00 00  00 00 00 00    00 00 00 00  00 00 00 00 ................&lt;br&gt;0x000440: 00 00 00 00  00 00 00 00    00 00 00 00  00 00 00 00 ................&lt;br&gt;0x000450: 00 00 00 00  00 00 00 00    00 00 00 00  00 00 00 00 ................&lt;br&gt;0x000460: 00 00 00 00  00 00 00 00    00 00 00 00  00 00 00 00 ................&lt;br&gt;0x000470: 00 00 00 00  00 00 00 00    00 00 00 00  00 00 00 00 ................&lt;br&gt;0x000480: 00 00 00 00  00 00 00 00    80 00 00 00  00 00 00 00 ................&lt;br&gt;0x000490: 08 84 8a 02  01 00 00 00    08 85 8a 02  01 00 00 00 ................&lt;br&gt;0x0004a0: 00 00 00 00  00 00 00 00    00 00 00 00  00 00 00 00 ................&lt;br&gt;0x0004b0: 00 00 00 00  00 00 00 00    00 00 00 00  00 00 00 00 ................&lt;br&gt;0x0004c0: 00 00 00 00  00 00 00 00    00 00 00 00  00 00 00 00 ................&lt;br&gt;0x0004d0: 00 00 00 00  00 00 00 00    00 00 00 00  00 00 00 00 ................&lt;br&gt;0x0004e0: 00 00 00 00  00 00 00 00    00 00 00 00  00 00 00 00 ................&lt;br&gt;0x0004f0: 00 00 00 00  00 00 00 00    00 00 00 00  00 00 00 00 ................&lt;br&gt;0x000500: 00 00 00 00  00 00 00 00    80 00 00 00  00 00 00 00 ................&lt;br&gt;0x000510: 88 84 8a 02  01 00 00 00    88 85 8a 02  01 00 00 00 ................&lt;br&gt;0x000520: 00 00 00 00  00 00 00 00    00 00 00 00  00 00 00 00 ................&lt;br&gt;0x000530: 00 00 00 00  00 00 00 00    00 00 00 00  00 00 00 00 ................&lt;br&gt;0x000540: 00 00 00 00  00 00 00 00    00 00 00 00  00 00 00 00 ................&lt;br&gt;0x000550: 00 00 00 00  00 00 00 00    00 00 00 00  00 00 00 00 ................&lt;br&gt;0x000560: 00 00 00 00  00 00 00 00    00 00 00 00  00 00 00 00 ................&lt;br&gt;0x000570: 00 00 00 00  00 00 00 00    00 00 00 00  00 00 00 00 ................&lt;br&gt;0x000580: 00 00 00 00  00 00 00 00    80 00 00 00  00 00 00 00 ................&lt;br&gt;0x000590: 08 85 8a 02  01 00 00 00    08 86 8a 02  01 00 00 00 ................&lt;br&gt;0x0005a0: 00 00 00 00  00 00 00 00    00 00 00 00  00 00 00 00 ................&lt;br&gt;0x0005b0: 00 00 00 00  00 00 00 00    00 00 00 00  00 00 00 00 ................&lt;br&gt;0x0005c0: 00 00 00 00  00 00 00 00    00 00 00 00  00 00 00 00 ................&lt;br&gt;0x0005d0: 00 00 00 00  00 00 00 00    00 00 00 00  00 00 00 00 ................&lt;br&gt;0x0005e0: 00 00 00 00  00 00 00 00    00 00 00 00  00 00 00 00 ................&lt;br&gt;0x0005f0: 00 00 00 00  00 00 00 00    00 00 00 00  00 00 00 00 ................&lt;br&gt;0x000600: 00 00 00 00  00 00 00 00    80 00 00 00  00 00 00 00 ................&lt;br&gt;0x000610: 88 85 8a 02  01 00 00 00    88 86 8a 02  01 00 00 00 ................&lt;br&gt;0x000620: 00 00 00 00  00 00 00 00    00 00 00 00  00 00 00 00 ................" style="text;whiteSpace=wrap;html=1;" vertex="1" parent="1">
          <mxGeometry x="1580" y="190" width="410" height="1510" as="geometry" />
        </mxCell>
        <mxCell id="5aLN-dTeSfC9B5cU5fiM-8" value="ll" style="text;strokeColor=none;align=center;fillColor=none;html=1;verticalAlign=middle;whiteSpace=wrap;rounded=0;" vertex="1" parent="1">
          <mxGeometry x="1530" y="310" width="60" height="30" as="geometry" />
        </mxCell>
      </root>
    </mxGraphModel>
  </diagram>
</mxfile>
